<mxfile host="app.diagrams.net" modified="2023-05-26T10:39:58.723Z" agent="Mozilla/5.0 (Windows NT 10.0; Win64; x64) AppleWebKit/537.36 (KHTML, like Gecko) Chrome/113.0.0.0 Safari/537.36" etag="Ki_cNotxiO2pJ5tsv1bb" version="21.3.3" type="github">
  <diagram name="Page-1" id="qmEW6ajSkmtEpjvPChuy">
    <mxGraphModel dx="1660" dy="782" grid="1" gridSize="10" guides="1" tooltips="1" connect="1" arrows="1" fold="1" page="1" pageScale="1" pageWidth="827" pageHeight="1169" math="0" shadow="0">
      <root>
        <mxCell id="0" />
        <mxCell id="1" parent="0" />
        <mxCell id="DqQEm0YlbbgdJ4GvyhTK-59" value="" style="ellipse;whiteSpace=wrap;html=1;fillColor=#e1d5e7;strokeColor=#9673a6;" parent="1" vertex="1">
          <mxGeometry x="140" y="237" width="320" height="230" as="geometry" />
        </mxCell>
        <mxCell id="DqQEm0YlbbgdJ4GvyhTK-1" value="&lt;font style=&quot;font-size: 13px;&quot;&gt;serointsw00269&lt;br style=&quot;&quot;&gt;SLX--PE-Router&lt;/font&gt;" style="rounded=1;whiteSpace=wrap;html=1;fontSize=8;" parent="1" vertex="1">
          <mxGeometry x="233" y="330" width="120" height="60" as="geometry" />
        </mxCell>
        <mxCell id="DqQEm0YlbbgdJ4GvyhTK-2" value="R6K_serointrt00121&lt;br style=&quot;font-size: 8px;&quot;&gt;N99" style="rounded=1;whiteSpace=wrap;html=1;fontSize=8;" parent="1" vertex="1">
          <mxGeometry x="43" y="122" width="120" height="60" as="geometry" />
        </mxCell>
        <mxCell id="DqQEm0YlbbgdJ4GvyhTK-3" value="" style="endArrow=classic;startArrow=classic;html=1;rounded=0;exitX=0.108;exitY=0.017;exitDx=0;exitDy=0;exitPerimeter=0;fontSize=8;entryX=0.625;entryY=1.01;entryDx=0;entryDy=0;entryPerimeter=0;" parent="1" source="DqQEm0YlbbgdJ4GvyhTK-1" target="DqQEm0YlbbgdJ4GvyhTK-2" edge="1">
          <mxGeometry width="50" height="50" relative="1" as="geometry">
            <mxPoint x="63" y="240" as="sourcePoint" />
            <mxPoint x="113" y="190" as="targetPoint" />
          </mxGeometry>
        </mxCell>
        <mxCell id="DqQEm0YlbbgdJ4GvyhTK-10" value="&lt;font style=&quot;font-size: 8px;&quot;&gt;Eth&amp;nbsp;0/1&lt;/font&gt;" style="edgeLabel;html=1;align=center;verticalAlign=middle;resizable=0;points=[];fontSize=8;" parent="DqQEm0YlbbgdJ4GvyhTK-3" vertex="1" connectable="0">
          <mxGeometry x="-0.3682" y="1" relative="1" as="geometry">
            <mxPoint x="21" y="29" as="offset" />
          </mxGeometry>
        </mxCell>
        <mxCell id="DqQEm0YlbbgdJ4GvyhTK-4" value="" style="endArrow=classic;startArrow=classic;html=1;rounded=0;exitX=0.108;exitY=0.017;exitDx=0;exitDy=0;exitPerimeter=0;fontSize=8;entryX=0.75;entryY=1;entryDx=0;entryDy=0;" parent="1" target="DqQEm0YlbbgdJ4GvyhTK-2" edge="1">
          <mxGeometry width="50" height="50" relative="1" as="geometry">
            <mxPoint x="266" y="331" as="sourcePoint" />
            <mxPoint x="133" y="190" as="targetPoint" />
          </mxGeometry>
        </mxCell>
        <mxCell id="DqQEm0YlbbgdJ4GvyhTK-9" value="&lt;font style=&quot;font-size: 8px;&quot;&gt;Eth0/2&lt;/font&gt;" style="edgeLabel;html=1;align=center;verticalAlign=middle;resizable=0;points=[];fontSize=8;" parent="DqQEm0YlbbgdJ4GvyhTK-4" vertex="1" connectable="0">
          <mxGeometry x="-0.6961" y="-1" relative="1" as="geometry">
            <mxPoint x="7" y="6" as="offset" />
          </mxGeometry>
        </mxCell>
        <mxCell id="DqQEm0YlbbgdJ4GvyhTK-5" value="serointrt00122&lt;br style=&quot;font-size: 8px;&quot;&gt;N99" style="rounded=1;whiteSpace=wrap;html=1;fontSize=8;" parent="1" vertex="1">
          <mxGeometry x="413" y="120" width="120" height="60" as="geometry" />
        </mxCell>
        <mxCell id="DqQEm0YlbbgdJ4GvyhTK-6" value="" style="endArrow=classic;startArrow=classic;html=1;rounded=0;exitX=0.75;exitY=0;exitDx=0;exitDy=0;fontSize=8;" parent="1" source="DqQEm0YlbbgdJ4GvyhTK-1" edge="1">
          <mxGeometry width="50" height="50" relative="1" as="geometry">
            <mxPoint x="616" y="321" as="sourcePoint" />
            <mxPoint x="483" y="180" as="targetPoint" />
          </mxGeometry>
        </mxCell>
        <mxCell id="DqQEm0YlbbgdJ4GvyhTK-11" value="Eth&amp;nbsp;0/3" style="edgeLabel;html=1;align=center;verticalAlign=middle;resizable=0;points=[];fontSize=8;" parent="DqQEm0YlbbgdJ4GvyhTK-6" vertex="1" connectable="0">
          <mxGeometry x="-0.2938" y="-1" relative="1" as="geometry">
            <mxPoint x="159" y="-73" as="offset" />
          </mxGeometry>
        </mxCell>
        <mxCell id="DqQEm0YlbbgdJ4GvyhTK-7" value="" style="endArrow=classic;startArrow=classic;html=1;rounded=0;exitX=0.892;exitY=0;exitDx=0;exitDy=0;fontSize=8;exitPerimeter=0;" parent="1" source="DqQEm0YlbbgdJ4GvyhTK-1" edge="1">
          <mxGeometry width="50" height="50" relative="1" as="geometry">
            <mxPoint x="349" y="331" as="sourcePoint" />
            <mxPoint x="499" y="181" as="targetPoint" />
          </mxGeometry>
        </mxCell>
        <mxCell id="DqQEm0YlbbgdJ4GvyhTK-8" value="Eth&amp;nbsp;0/4" style="edgeLabel;html=1;align=center;verticalAlign=middle;resizable=0;points=[];fontSize=8;" parent="DqQEm0YlbbgdJ4GvyhTK-7" vertex="1" connectable="0">
          <mxGeometry x="-0.84" y="-3" relative="1" as="geometry">
            <mxPoint y="-4" as="offset" />
          </mxGeometry>
        </mxCell>
        <mxCell id="DqQEm0YlbbgdJ4GvyhTK-12" value="&lt;font style=&quot;font-size: 14px;&quot;&gt;R6K_serointrt00126&lt;br style=&quot;&quot;&gt;N280&lt;/font&gt;" style="rounded=1;whiteSpace=wrap;html=1;fontSize=8;" parent="1" vertex="1">
          <mxGeometry x="413" y="540" width="127" height="60" as="geometry" />
        </mxCell>
        <mxCell id="DqQEm0YlbbgdJ4GvyhTK-13" value="" style="endArrow=classic;startArrow=classic;html=1;rounded=0;exitX=0;exitY=0;exitDx=0;exitDy=0;fontSize=8;" parent="1" source="DqQEm0YlbbgdJ4GvyhTK-12" edge="1">
          <mxGeometry width="50" height="50" relative="1" as="geometry">
            <mxPoint x="177" y="540" as="sourcePoint" />
            <mxPoint x="337" y="390" as="targetPoint" />
          </mxGeometry>
        </mxCell>
        <mxCell id="DqQEm0YlbbgdJ4GvyhTK-14" value="Eth&amp;nbsp;0/8" style="edgeLabel;html=1;align=center;verticalAlign=middle;resizable=0;points=[];fontSize=8;" parent="DqQEm0YlbbgdJ4GvyhTK-13" vertex="1" connectable="0">
          <mxGeometry x="-0.2938" y="-1" relative="1" as="geometry">
            <mxPoint x="-47" y="-77" as="offset" />
          </mxGeometry>
        </mxCell>
        <mxCell id="DqQEm0YlbbgdJ4GvyhTK-15" value="" style="endArrow=classic;startArrow=classic;html=1;rounded=0;exitX=1;exitY=0;exitDx=0;exitDy=0;entryX=1;entryY=1;entryDx=0;entryDy=0;fontSize=8;" parent="1" target="DqQEm0YlbbgdJ4GvyhTK-1" edge="1">
          <mxGeometry width="50" height="50" relative="1" as="geometry">
            <mxPoint x="433" y="540" as="sourcePoint" />
            <mxPoint x="583" y="390" as="targetPoint" />
          </mxGeometry>
        </mxCell>
        <mxCell id="DqQEm0YlbbgdJ4GvyhTK-16" value="Eth&amp;nbsp;0/7" style="edgeLabel;html=1;align=center;verticalAlign=middle;resizable=0;points=[];fontSize=8;" parent="DqQEm0YlbbgdJ4GvyhTK-15" vertex="1" connectable="0">
          <mxGeometry x="-0.84" y="-3" relative="1" as="geometry">
            <mxPoint x="-60" y="-127" as="offset" />
          </mxGeometry>
        </mxCell>
        <mxCell id="DqQEm0YlbbgdJ4GvyhTK-17" value="&lt;font style=&quot;font-size: 14px;&quot;&gt;R6K_serointrt00125&lt;br style=&quot;&quot;&gt;N280&lt;/font&gt;" style="rounded=1;whiteSpace=wrap;html=1;fontSize=8;" parent="1" vertex="1">
          <mxGeometry x="40" y="540" width="123" height="60" as="geometry" />
        </mxCell>
        <mxCell id="DqQEm0YlbbgdJ4GvyhTK-18" value="" style="endArrow=classic;startArrow=classic;html=1;rounded=0;exitX=0.678;exitY=-0.023;exitDx=0;exitDy=0;fontSize=8;exitPerimeter=0;" parent="1" source="DqQEm0YlbbgdJ4GvyhTK-17" edge="1">
          <mxGeometry width="50" height="50" relative="1" as="geometry">
            <mxPoint x="113" y="540" as="sourcePoint" />
            <mxPoint x="273" y="390" as="targetPoint" />
          </mxGeometry>
        </mxCell>
        <mxCell id="DqQEm0YlbbgdJ4GvyhTK-19" value="Eth&amp;nbsp;0/5" style="edgeLabel;html=1;align=center;verticalAlign=middle;resizable=0;points=[];fontSize=8;" parent="DqQEm0YlbbgdJ4GvyhTK-18" vertex="1" connectable="0">
          <mxGeometry x="-0.2938" y="-1" relative="1" as="geometry">
            <mxPoint x="80" y="-88" as="offset" />
          </mxGeometry>
        </mxCell>
        <mxCell id="DqQEm0YlbbgdJ4GvyhTK-60" value="ethernet 2/45" style="edgeLabel;html=1;align=center;verticalAlign=middle;resizable=0;points=[];fontSize=7;" parent="DqQEm0YlbbgdJ4GvyhTK-18" vertex="1" connectable="0">
          <mxGeometry x="-0.7266" relative="1" as="geometry">
            <mxPoint y="-5" as="offset" />
          </mxGeometry>
        </mxCell>
        <mxCell id="DqQEm0YlbbgdJ4GvyhTK-20" value="" style="endArrow=classic;startArrow=classic;html=1;rounded=0;exitX=1;exitY=0;exitDx=0;exitDy=0;fontSize=8;" parent="1" edge="1">
          <mxGeometry width="50" height="50" relative="1" as="geometry">
            <mxPoint x="143" y="540" as="sourcePoint" />
            <mxPoint x="293" y="390" as="targetPoint" />
          </mxGeometry>
        </mxCell>
        <mxCell id="DqQEm0YlbbgdJ4GvyhTK-21" value="Eth&amp;nbsp;0/6" style="edgeLabel;html=1;align=center;verticalAlign=middle;resizable=0;points=[];fontSize=8;" parent="DqQEm0YlbbgdJ4GvyhTK-20" vertex="1" connectable="0">
          <mxGeometry x="-0.84" y="-3" relative="1" as="geometry">
            <mxPoint x="123" y="-130" as="offset" />
          </mxGeometry>
        </mxCell>
        <mxCell id="DqQEm0YlbbgdJ4GvyhTK-61" value="ethernet 3/45" style="edgeLabel;html=1;align=center;verticalAlign=middle;resizable=0;points=[];fontSize=7;" parent="DqQEm0YlbbgdJ4GvyhTK-20" vertex="1" connectable="0">
          <mxGeometry x="-0.7644" relative="1" as="geometry">
            <mxPoint as="offset" />
          </mxGeometry>
        </mxCell>
        <mxCell id="DqQEm0YlbbgdJ4GvyhTK-22" value="PO3" style="ellipse;whiteSpace=wrap;html=1;fontSize=8;" parent="1" vertex="1">
          <mxGeometry x="220" y="410" width="60" height="20" as="geometry" />
        </mxCell>
        <mxCell id="DqQEm0YlbbgdJ4GvyhTK-23" value="PO4" style="ellipse;whiteSpace=wrap;html=1;fontSize=8;" parent="1" vertex="1">
          <mxGeometry x="331.25" y="420" width="60" height="20" as="geometry" />
        </mxCell>
        <mxCell id="DqQEm0YlbbgdJ4GvyhTK-26" value="SLX_serointsw00016&lt;br style=&quot;font-size: 8px;&quot;&gt;N99" style="rounded=1;whiteSpace=wrap;html=1;fontSize=8;" parent="1" vertex="1">
          <mxGeometry x="554" y="330" width="120" height="60" as="geometry" />
        </mxCell>
        <mxCell id="DqQEm0YlbbgdJ4GvyhTK-27" value="" style="endArrow=classic;startArrow=classic;html=1;rounded=0;entryX=0;entryY=0.75;entryDx=0;entryDy=0;exitX=1;exitY=0.75;exitDx=0;exitDy=0;fontSize=8;" parent="1" edge="1">
          <mxGeometry width="50" height="50" relative="1" as="geometry">
            <mxPoint x="352.9999999999999" y="382" as="sourcePoint" />
            <mxPoint x="554" y="382" as="targetPoint" />
          </mxGeometry>
        </mxCell>
        <mxCell id="DqQEm0YlbbgdJ4GvyhTK-38" value="ge5" style="edgeLabel;html=1;align=center;verticalAlign=middle;resizable=0;points=[];fontSize=8;" parent="DqQEm0YlbbgdJ4GvyhTK-27" vertex="1" connectable="0">
          <mxGeometry x="0.5312" y="-1" relative="1" as="geometry">
            <mxPoint x="13" y="3" as="offset" />
          </mxGeometry>
        </mxCell>
        <mxCell id="DqQEm0YlbbgdJ4GvyhTK-28" value="" style="endArrow=classic;startArrow=classic;html=1;rounded=0;exitX=1;exitY=0.75;exitDx=0;exitDy=0;fontSize=8;" parent="1" edge="1">
          <mxGeometry width="50" height="50" relative="1" as="geometry">
            <mxPoint x="353" y="342" as="sourcePoint" />
            <mxPoint x="550" y="342" as="targetPoint" />
          </mxGeometry>
        </mxCell>
        <mxCell id="DqQEm0YlbbgdJ4GvyhTK-31" value="ge2" style="edgeLabel;html=1;align=center;verticalAlign=middle;resizable=0;points=[];fontSize=8;" parent="DqQEm0YlbbgdJ4GvyhTK-28" vertex="1" connectable="0">
          <mxGeometry x="0.6449" y="1" relative="1" as="geometry">
            <mxPoint x="-15" as="offset" />
          </mxGeometry>
        </mxCell>
        <mxCell id="DqQEm0YlbbgdJ4GvyhTK-32" value="&lt;span style=&quot;color: rgb(0, 0, 0); font-family: Helvetica; font-style: normal; font-variant-ligatures: normal; font-variant-caps: normal; font-weight: 400; letter-spacing: normal; orphans: 2; text-align: center; text-indent: 0px; text-transform: none; widows: 2; word-spacing: 0px; -webkit-text-stroke-width: 0px; background-color: rgb(255, 255, 255); text-decoration-thickness: initial; text-decoration-style: initial; text-decoration-color: initial; float: none; font-size: 8px; display: inline !important;&quot;&gt;&lt;font style=&quot;font-size: 8px;&quot;&gt;Eth&amp;nbsp;0/19&lt;/font&gt;&lt;/span&gt;" style="edgeLabel;html=1;align=center;verticalAlign=middle;resizable=0;points=[];fontSize=8;" parent="DqQEm0YlbbgdJ4GvyhTK-28" vertex="1" connectable="0">
          <mxGeometry x="-0.6526" y="1" relative="1" as="geometry">
            <mxPoint x="7" as="offset" />
          </mxGeometry>
        </mxCell>
        <mxCell id="DqQEm0YlbbgdJ4GvyhTK-29" value="" style="endArrow=classic;startArrow=classic;html=1;rounded=0;entryX=0;entryY=0.5;entryDx=0;entryDy=0;exitX=1;exitY=0.75;exitDx=0;exitDy=0;fontSize=8;" parent="1" edge="1">
          <mxGeometry width="50" height="50" relative="1" as="geometry">
            <mxPoint x="353" y="353.40999999999997" as="sourcePoint" />
            <mxPoint x="554" y="354" as="targetPoint" />
          </mxGeometry>
        </mxCell>
        <mxCell id="DqQEm0YlbbgdJ4GvyhTK-36" value="ge3" style="edgeLabel;html=1;align=center;verticalAlign=middle;resizable=0;points=[];fontSize=8;" parent="DqQEm0YlbbgdJ4GvyhTK-29" vertex="1" connectable="0">
          <mxGeometry x="0.6132" y="-4" relative="1" as="geometry">
            <mxPoint x="5" y="-4" as="offset" />
          </mxGeometry>
        </mxCell>
        <mxCell id="DqQEm0YlbbgdJ4GvyhTK-30" value="" style="endArrow=classic;startArrow=classic;html=1;rounded=0;entryX=-0.006;entryY=0.635;entryDx=0;entryDy=0;exitX=1;exitY=0.75;exitDx=0;exitDy=0;entryPerimeter=0;fontSize=8;" parent="1" edge="1">
          <mxGeometry width="50" height="50" relative="1" as="geometry">
            <mxPoint x="352.5" y="366" as="sourcePoint" />
            <mxPoint x="553.28" y="366.1" as="targetPoint" />
          </mxGeometry>
        </mxCell>
        <mxCell id="DqQEm0YlbbgdJ4GvyhTK-37" value="ge4" style="edgeLabel;html=1;align=center;verticalAlign=middle;resizable=0;points=[];fontSize=8;" parent="DqQEm0YlbbgdJ4GvyhTK-30" vertex="1" connectable="0">
          <mxGeometry x="0.6902" relative="1" as="geometry">
            <mxPoint x="-22" y="1" as="offset" />
          </mxGeometry>
        </mxCell>
        <mxCell id="DqQEm0YlbbgdJ4GvyhTK-33" value="&lt;span style=&quot;color: rgb(0, 0, 0); font-family: Helvetica; font-style: normal; font-variant-ligatures: normal; font-variant-caps: normal; font-weight: 400; letter-spacing: normal; orphans: 2; text-align: center; text-indent: 0px; text-transform: none; widows: 2; word-spacing: 0px; -webkit-text-stroke-width: 0px; background-color: rgb(255, 255, 255); text-decoration-thickness: initial; text-decoration-style: initial; text-decoration-color: initial; float: none; font-size: 8px; display: inline !important;&quot;&gt;&lt;font style=&quot;font-size: 8px;&quot;&gt;Eth&amp;nbsp;0/21&lt;/font&gt;&lt;/span&gt;" style="edgeLabel;html=1;align=center;verticalAlign=middle;resizable=0;points=[];fontSize=8;" parent="1" vertex="1" connectable="0">
          <mxGeometry x="399.11764705882365" y="354" as="geometry">
            <mxPoint x="-2" y="-1" as="offset" />
          </mxGeometry>
        </mxCell>
        <mxCell id="DqQEm0YlbbgdJ4GvyhTK-34" value="&lt;span style=&quot;color: rgb(0, 0, 0); font-family: Helvetica; font-style: normal; font-variant-ligatures: normal; font-variant-caps: normal; font-weight: 400; letter-spacing: normal; orphans: 2; text-align: center; text-indent: 0px; text-transform: none; widows: 2; word-spacing: 0px; -webkit-text-stroke-width: 0px; background-color: rgb(255, 255, 255); text-decoration-thickness: initial; text-decoration-style: initial; text-decoration-color: initial; float: none; font-size: 8px; display: inline !important;&quot;&gt;&lt;font style=&quot;font-size: 8px;&quot;&gt;Eth&amp;nbsp;0/22&lt;/font&gt;&lt;/span&gt;" style="edgeLabel;html=1;align=center;verticalAlign=middle;resizable=0;points=[];fontSize=8;" parent="1" vertex="1" connectable="0">
          <mxGeometry x="404.11764705882365" y="367" as="geometry">
            <mxPoint x="-8" y="-1" as="offset" />
          </mxGeometry>
        </mxCell>
        <mxCell id="DqQEm0YlbbgdJ4GvyhTK-35" value="&lt;span style=&quot;color: rgb(0, 0, 0); font-family: Helvetica; font-style: normal; font-variant-ligatures: normal; font-variant-caps: normal; font-weight: 400; letter-spacing: normal; orphans: 2; text-align: center; text-indent: 0px; text-transform: none; widows: 2; word-spacing: 0px; -webkit-text-stroke-width: 0px; background-color: rgb(255, 255, 255); text-decoration-thickness: initial; text-decoration-style: initial; text-decoration-color: initial; float: none; font-size: 8px; display: inline !important;&quot;&gt;&lt;font style=&quot;font-size: 8px;&quot;&gt;Eth&amp;nbsp;0/23&lt;/font&gt;&lt;/span&gt;" style="edgeLabel;html=1;align=center;verticalAlign=middle;resizable=0;points=[];fontSize=8;" parent="1" vertex="1" connectable="0">
          <mxGeometry x="387.11764705882365" y="384" as="geometry">
            <mxPoint x="3" y="-3" as="offset" />
          </mxGeometry>
        </mxCell>
        <mxCell id="DqQEm0YlbbgdJ4GvyhTK-39" value="PO5" style="ellipse;whiteSpace=wrap;html=1;rotation=-90;fontSize=8;" parent="1" vertex="1">
          <mxGeometry x="349.88" y="355.38" width="40.75" height="14.5" as="geometry" />
        </mxCell>
        <mxCell id="DqQEm0YlbbgdJ4GvyhTK-45" value="" style="endArrow=classic;startArrow=classic;html=1;rounded=0;exitX=1;exitY=0.25;exitDx=0;exitDy=0;entryX=0.058;entryY=0.4;entryDx=0;entryDy=0;entryPerimeter=0;fontSize=8;" parent="1" source="DqQEm0YlbbgdJ4GvyhTK-43" target="DqQEm0YlbbgdJ4GvyhTK-1" edge="1">
          <mxGeometry width="50" height="50" relative="1" as="geometry">
            <mxPoint x="163" y="354" as="sourcePoint" />
            <mxPoint x="230" y="354" as="targetPoint" />
          </mxGeometry>
        </mxCell>
        <mxCell id="DqQEm0YlbbgdJ4GvyhTK-50" value="&lt;font style=&quot;font-size: 8px;&quot;&gt;eth0/20:1&lt;/font&gt;" style="edgeLabel;html=1;align=center;verticalAlign=middle;resizable=0;points=[];fontSize=8;" parent="DqQEm0YlbbgdJ4GvyhTK-45" vertex="1" connectable="0">
          <mxGeometry x="0.5357" y="1" relative="1" as="geometry">
            <mxPoint x="-20" as="offset" />
          </mxGeometry>
        </mxCell>
        <mxCell id="DqQEm0YlbbgdJ4GvyhTK-46" value="" style="endArrow=classic;startArrow=classic;html=1;rounded=0;exitX=1;exitY=0.75;exitDx=0;exitDy=0;fontSize=8;" parent="1" source="DqQEm0YlbbgdJ4GvyhTK-44" edge="1">
          <mxGeometry width="50" height="50" relative="1" as="geometry">
            <mxPoint x="171" y="380" as="sourcePoint" />
            <mxPoint x="238" y="380" as="targetPoint" />
          </mxGeometry>
        </mxCell>
        <mxCell id="DqQEm0YlbbgdJ4GvyhTK-51" value="&lt;font style=&quot;font-size: 8px;&quot;&gt;eth0/20:2&lt;/font&gt;" style="edgeLabel;html=1;align=center;verticalAlign=middle;resizable=0;points=[];fontSize=8;" parent="DqQEm0YlbbgdJ4GvyhTK-46" vertex="1" connectable="0">
          <mxGeometry x="0.4959" relative="1" as="geometry">
            <mxPoint x="-17" as="offset" />
          </mxGeometry>
        </mxCell>
        <mxCell id="DqQEm0YlbbgdJ4GvyhTK-52" value="" style="group;fontSize=8;" parent="1" vertex="1" connectable="0">
          <mxGeometry x="43" y="347" width="87" height="40" as="geometry" />
        </mxCell>
        <mxCell id="DqQEm0YlbbgdJ4GvyhTK-43" value="serointrt12101&lt;br style=&quot;font-size: 8px;&quot;&gt;ASR" style="rounded=1;whiteSpace=wrap;html=1;fontSize=8;" parent="DqQEm0YlbbgdJ4GvyhTK-52" vertex="1">
          <mxGeometry width="80.30769230769232" height="25" as="geometry" />
        </mxCell>
        <mxCell id="DqQEm0YlbbgdJ4GvyhTK-44" value="serointrt12102&lt;br style=&quot;font-size: 8px;&quot;&gt;ASR" style="rounded=1;whiteSpace=wrap;html=1;fontSize=8;" parent="DqQEm0YlbbgdJ4GvyhTK-52" vertex="1">
          <mxGeometry x="6.6923076923076925" y="15" width="80.30769230769232" height="25" as="geometry" />
        </mxCell>
        <mxCell id="DqQEm0YlbbgdJ4GvyhTK-53" value="&lt;font style=&quot;font-size: 8px;&quot;&gt;PO1&lt;/font&gt;" style="ellipse;whiteSpace=wrap;html=1;rotation=-90;fontSize=8;" parent="1" vertex="1">
          <mxGeometry x="213" y="344" width="20" height="16" as="geometry" />
        </mxCell>
        <mxCell id="DqQEm0YlbbgdJ4GvyhTK-54" value="&lt;font style=&quot;font-size: 8px;&quot;&gt;PO2&lt;/font&gt;" style="ellipse;whiteSpace=wrap;html=1;rotation=-90;fontSize=8;" parent="1" vertex="1">
          <mxGeometry x="211" y="370" width="20" height="16" as="geometry" />
        </mxCell>
        <mxCell id="DqQEm0YlbbgdJ4GvyhTK-55" value="PO121" style="ellipse;whiteSpace=wrap;html=1;fontSize=8;strokeColor=#6666FF;" parent="1" vertex="1">
          <mxGeometry x="204" y="280" width="38" height="17" as="geometry" />
        </mxCell>
        <mxCell id="DqQEm0YlbbgdJ4GvyhTK-56" value="PO122" style="ellipse;whiteSpace=wrap;html=1;fontSize=8;strokeColor=#6666FF;" parent="1" vertex="1">
          <mxGeometry x="347.12" y="288" width="39.88" height="16" as="geometry" />
        </mxCell>
        <mxCell id="DqQEm0YlbbgdJ4GvyhTK-57" value="&lt;div style=&quot;font-size: 9px;&quot;&gt;&lt;font style=&quot;font-size: 9px;&quot;&gt;serointsw00269# show running-config interface Port-channel 3&amp;nbsp;&lt;/font&gt;&lt;/div&gt;&lt;div style=&quot;font-size: 9px;&quot;&gt;&lt;font style=&quot;font-size: 9px;&quot;&gt;interface Port-channel 3&lt;/font&gt;&lt;/div&gt;&lt;div style=&quot;font-size: 9px;&quot;&gt;&lt;font style=&quot;font-size: 9px;&quot;&gt;&amp;nbsp;description serointrt00125&lt;/font&gt;&lt;/div&gt;&lt;div style=&quot;font-size: 9px;&quot;&gt;&lt;font style=&quot;font-size: 9px;&quot;&gt;&amp;nbsp;switchport&lt;/font&gt;&lt;/div&gt;&lt;div style=&quot;font-size: 9px;&quot;&gt;&lt;font style=&quot;font-size: 9px;&quot;&gt;&amp;nbsp;switchport mode trunk&lt;/font&gt;&lt;/div&gt;&lt;div style=&quot;font-size: 9px;&quot;&gt;&lt;font style=&quot;font-size: 9px;&quot;&gt;&amp;nbsp;switchport trunk allowed vlan add 803,809,1401-1410&lt;/font&gt;&lt;/div&gt;&lt;div style=&quot;font-size: 9px;&quot;&gt;&lt;font style=&quot;font-size: 9px;&quot;&gt;&amp;nbsp;switchport trunk tag native-vlan&lt;/font&gt;&lt;/div&gt;&lt;div style=&quot;font-size: 9px;&quot;&gt;&lt;font style=&quot;font-size: 9px;&quot;&gt;&amp;nbsp;no shutdown&lt;/font&gt;&lt;/div&gt;&lt;div style=&quot;font-size: 9px;&quot;&gt;&lt;font style=&quot;font-size: 9px;&quot;&gt;!&lt;/font&gt;&lt;/div&gt;" style="text;html=1;align=left;verticalAlign=middle;resizable=0;points=[];autosize=1;strokeColor=none;fillColor=none;" parent="1" vertex="1">
          <mxGeometry x="43" y="600" width="280" height="110" as="geometry" />
        </mxCell>
        <mxCell id="DqQEm0YlbbgdJ4GvyhTK-58" value="&lt;div style=&quot;font-size: 9px;&quot;&gt;&lt;font style=&quot;font-size: 9px;&quot;&gt;serointsw00269# show running-config interface Port-channel 4&lt;/font&gt;&lt;/div&gt;&lt;div style=&quot;font-size: 9px;&quot;&gt;&lt;font style=&quot;font-size: 9px;&quot;&gt;interface Port-channel 4&lt;/font&gt;&lt;/div&gt;&lt;div style=&quot;font-size: 9px;&quot;&gt;&lt;font style=&quot;font-size: 9px;&quot;&gt;&amp;nbsp;description serointrt00126&lt;/font&gt;&lt;/div&gt;&lt;div style=&quot;font-size: 9px;&quot;&gt;&lt;font style=&quot;font-size: 9px;&quot;&gt;&amp;nbsp;switchport&lt;/font&gt;&lt;/div&gt;&lt;div style=&quot;font-size: 9px;&quot;&gt;&lt;font style=&quot;font-size: 9px;&quot;&gt;&amp;nbsp;switchport mode trunk&lt;/font&gt;&lt;/div&gt;&lt;div style=&quot;font-size: 9px;&quot;&gt;&lt;font style=&quot;font-size: 9px;&quot;&gt;&amp;nbsp;switchport trunk allowed vlan add 804,810,1411-1420&lt;/font&gt;&lt;/div&gt;&lt;div style=&quot;font-size: 9px;&quot;&gt;&lt;font style=&quot;font-size: 9px;&quot;&gt;&amp;nbsp;switchport trunk tag native-vlan&lt;/font&gt;&lt;/div&gt;&lt;div style=&quot;font-size: 9px;&quot;&gt;&lt;font style=&quot;font-size: 9px;&quot;&gt;&amp;nbsp;no shutdown&lt;/font&gt;&lt;/div&gt;" style="text;html=1;align=left;verticalAlign=middle;resizable=0;points=[];autosize=1;strokeColor=none;fillColor=none;" parent="1" vertex="1">
          <mxGeometry x="38" y="700" width="270" height="100" as="geometry" />
        </mxCell>
        <mxCell id="DqQEm0YlbbgdJ4GvyhTK-62" value="BE2" style="ellipse;whiteSpace=wrap;html=1;fontSize=8;" parent="1" vertex="1">
          <mxGeometry x="151" y="499" width="27" height="10" as="geometry" />
        </mxCell>
        <mxCell id="DqQEm0YlbbgdJ4GvyhTK-63" value="&lt;div style=&quot;&quot;&gt;&lt;font style=&quot;&quot;&gt;serointrt00125#show link-group&lt;br&gt;&lt;span style=&quot;font-size: 10px;&quot;&gt;link-group BE2&lt;/span&gt;&lt;/font&gt;&lt;/div&gt;&lt;div style=&quot;font-size: 10px;&quot;&gt;&lt;font style=&quot;font-size: 10px;&quot;&gt;&amp;nbsp;description serointsw00269&lt;/font&gt;&lt;/div&gt;&lt;div style=&quot;font-size: 10px;&quot;&gt;&lt;font style=&quot;font-size: 10px;&quot;&gt;&amp;nbsp;no shutdown&lt;/font&gt;&lt;/div&gt;&lt;div style=&quot;font-size: 10px;&quot;&gt;&lt;font style=&quot;font-size: 10px;&quot;&gt;&amp;nbsp;encapsulation dot1q&lt;/font&gt;&lt;/div&gt;&lt;div style=&quot;font-size: 10px;&quot;&gt;&lt;font style=&quot;font-size: 10px;&quot;&gt;&amp;nbsp;lacp active&lt;/font&gt;&lt;/div&gt;&lt;div style=&quot;font-size: 10px;&quot;&gt;&lt;font style=&quot;font-size: 10px;&quot;&gt;&amp;nbsp;dot1q pvc 803&amp;nbsp;&lt;/font&gt;&lt;/div&gt;&lt;div style=&quot;font-size: 10px;&quot;&gt;&lt;font style=&quot;font-size: 10px;&quot;&gt;&amp;nbsp; bind interface BE2.803 VPN01313&lt;/font&gt;&lt;/div&gt;&lt;div style=&quot;font-size: 10px;&quot;&gt;&lt;font style=&quot;font-size: 10px;&quot;&gt;&amp;nbsp;dot1q pvc 809&amp;nbsp;&lt;/font&gt;&lt;/div&gt;&lt;div style=&quot;font-size: 10px;&quot;&gt;&lt;font style=&quot;font-size: 10px;&quot;&gt;&amp;nbsp; bind interface BE2.809 n280-om_cn&lt;/font&gt;&lt;/div&gt;&lt;div style=&quot;font-size: 10px;&quot;&gt;&lt;font style=&quot;font-size: 10px;&quot;&gt;&amp;nbsp;dot1q pvc 1401&amp;nbsp;&lt;/font&gt;&lt;/div&gt;&lt;div style=&quot;font-size: 10px;&quot;&gt;&lt;font style=&quot;font-size: 10px;&quot;&gt;&amp;nbsp; bind interface if-n280-vl1401 n280-1-media_cn&lt;/font&gt;&lt;/div&gt;&lt;div style=&quot;font-size: 10px;&quot;&gt;&lt;font style=&quot;font-size: 10px;&quot;&gt;&amp;nbsp;dot1q pvc 1402&amp;nbsp;&lt;/font&gt;&lt;/div&gt;&lt;div style=&quot;font-size: 10px;&quot;&gt;&lt;font style=&quot;font-size: 10px;&quot;&gt;&amp;nbsp; bind interface if-n280-vl1402 n280-1-sig_cn&lt;/font&gt;&lt;/div&gt;&lt;div style=&quot;font-size: 10px;&quot;&gt;&lt;font style=&quot;font-size: 10px;&quot;&gt;&amp;nbsp;dot1q pvc 1404&amp;nbsp;&lt;/font&gt;&lt;/div&gt;&lt;div style=&quot;font-size: 10px;&quot;&gt;&lt;font style=&quot;font-size: 10px;&quot;&gt;&amp;nbsp; bind interface if-n280-vl1404 n280-1-ran&lt;/font&gt;&lt;/div&gt;&lt;div style=&quot;font-size: 10px;&quot;&gt;&lt;font style=&quot;font-size: 10px;&quot;&gt;&amp;nbsp;dot1q pvc 1405&amp;nbsp;&lt;/font&gt;&lt;/div&gt;&lt;div style=&quot;font-size: 10px;&quot;&gt;&lt;font style=&quot;font-size: 10px;&quot;&gt;&amp;nbsp; bind interface if-n280-vl1405 n280-1-toext_open1&lt;/font&gt;&lt;/div&gt;&lt;div style=&quot;font-size: 10px;&quot;&gt;&lt;font style=&quot;font-size: 10px;&quot;&gt;&amp;nbsp;dot1q pvc 1409&amp;nbsp;&lt;/font&gt;&lt;/div&gt;&lt;div style=&quot;font-size: 10px;&quot;&gt;&lt;font style=&quot;font-size: 10px;&quot;&gt;&amp;nbsp; bind interface if-n280-vl1409 n280-1-sig_gsa&lt;/font&gt;&lt;/div&gt;&lt;div style=&quot;font-size: 10px;&quot;&gt;&lt;font style=&quot;font-size: 10px;&quot;&gt;&amp;nbsp;dot1q pvc 1410&amp;nbsp;&lt;/font&gt;&lt;/div&gt;&lt;div style=&quot;font-size: 10px;&quot;&gt;&lt;font style=&quot;font-size: 10px;&quot;&gt;&amp;nbsp; bind interface if-n280-vl1410 n280-1-sig_data&lt;/font&gt;&lt;/div&gt;&lt;div style=&quot;font-size: 10px;&quot;&gt;&lt;font style=&quot;font-size: 10px;&quot;&gt;!&lt;/font&gt;&lt;/div&gt;" style="text;html=1;align=left;verticalAlign=middle;resizable=0;points=[];autosize=1;strokeColor=none;fillColor=none;" parent="1" vertex="1">
          <mxGeometry x="30" y="795" width="250" height="290" as="geometry" />
        </mxCell>
        <mxCell id="DqQEm0YlbbgdJ4GvyhTK-64" value="" style="endArrow=classic;startArrow=classic;html=1;rounded=0;exitX=1;exitY=0.25;exitDx=0;exitDy=0;entryX=0;entryY=0.25;entryDx=0;entryDy=0;" parent="1" source="DqQEm0YlbbgdJ4GvyhTK-17" target="DqQEm0YlbbgdJ4GvyhTK-12" edge="1">
          <mxGeometry width="50" height="50" relative="1" as="geometry">
            <mxPoint x="270" y="560" as="sourcePoint" />
            <mxPoint x="320" y="510" as="targetPoint" />
          </mxGeometry>
        </mxCell>
        <mxCell id="DqQEm0YlbbgdJ4GvyhTK-68" value="eth2/53" style="edgeLabel;html=1;align=center;verticalAlign=middle;resizable=0;points=[];fontSize=7;" parent="DqQEm0YlbbgdJ4GvyhTK-64" vertex="1" connectable="0">
          <mxGeometry x="-0.8693" y="1" relative="1" as="geometry">
            <mxPoint x="5" as="offset" />
          </mxGeometry>
        </mxCell>
        <mxCell id="DqQEm0YlbbgdJ4GvyhTK-69" value="eth2/53" style="edgeLabel;html=1;align=center;verticalAlign=middle;resizable=0;points=[];fontSize=7;" parent="DqQEm0YlbbgdJ4GvyhTK-64" vertex="1" connectable="0">
          <mxGeometry x="0.8136" relative="1" as="geometry">
            <mxPoint as="offset" />
          </mxGeometry>
        </mxCell>
        <mxCell id="DqQEm0YlbbgdJ4GvyhTK-65" value="" style="endArrow=classic;startArrow=classic;html=1;rounded=0;exitX=1;exitY=0.25;exitDx=0;exitDy=0;entryX=0;entryY=0.25;entryDx=0;entryDy=0;" parent="1" edge="1">
          <mxGeometry width="50" height="50" relative="1" as="geometry">
            <mxPoint x="163" y="580" as="sourcePoint" />
            <mxPoint x="413" y="580" as="targetPoint" />
          </mxGeometry>
        </mxCell>
        <mxCell id="DqQEm0YlbbgdJ4GvyhTK-72" value="eth3/53" style="edgeLabel;html=1;align=center;verticalAlign=middle;resizable=0;points=[];fontSize=7;" parent="DqQEm0YlbbgdJ4GvyhTK-65" vertex="1" connectable="0">
          <mxGeometry x="-0.8575" relative="1" as="geometry">
            <mxPoint as="offset" />
          </mxGeometry>
        </mxCell>
        <mxCell id="DqQEm0YlbbgdJ4GvyhTK-73" value="eth3/53" style="edgeLabel;html=1;align=center;verticalAlign=middle;resizable=0;points=[];fontSize=7;" parent="DqQEm0YlbbgdJ4GvyhTK-65" vertex="1" connectable="0">
          <mxGeometry x="0.7959" relative="1" as="geometry">
            <mxPoint as="offset" />
          </mxGeometry>
        </mxCell>
        <mxCell id="DqQEm0YlbbgdJ4GvyhTK-66" value="" style="endArrow=classic;startArrow=classic;html=1;rounded=0;exitX=1;exitY=0.25;exitDx=0;exitDy=0;entryX=0;entryY=0.25;entryDx=0;entryDy=0;" parent="1" edge="1">
          <mxGeometry width="50" height="50" relative="1" as="geometry">
            <mxPoint x="163" y="569.63" as="sourcePoint" />
            <mxPoint x="413" y="569.63" as="targetPoint" />
          </mxGeometry>
        </mxCell>
        <mxCell id="DqQEm0YlbbgdJ4GvyhTK-70" value="eth2/57" style="edgeLabel;html=1;align=center;verticalAlign=middle;resizable=0;points=[];fontSize=7;" parent="DqQEm0YlbbgdJ4GvyhTK-66" vertex="1" connectable="0">
          <mxGeometry x="-0.8812" y="3" relative="1" as="geometry">
            <mxPoint as="offset" />
          </mxGeometry>
        </mxCell>
        <mxCell id="DqQEm0YlbbgdJ4GvyhTK-71" value="eth2/57" style="edgeLabel;html=1;align=center;verticalAlign=middle;resizable=0;points=[];fontSize=7;" parent="DqQEm0YlbbgdJ4GvyhTK-66" vertex="1" connectable="0">
          <mxGeometry x="0.7899" y="1" relative="1" as="geometry">
            <mxPoint as="offset" />
          </mxGeometry>
        </mxCell>
        <mxCell id="DqQEm0YlbbgdJ4GvyhTK-67" value="" style="endArrow=classic;startArrow=classic;html=1;rounded=0;exitX=1;exitY=0.25;exitDx=0;exitDy=0;entryX=0;entryY=0.25;entryDx=0;entryDy=0;" parent="1" edge="1">
          <mxGeometry width="50" height="50" relative="1" as="geometry">
            <mxPoint x="163" y="592" as="sourcePoint" />
            <mxPoint x="413" y="592" as="targetPoint" />
          </mxGeometry>
        </mxCell>
        <mxCell id="DqQEm0YlbbgdJ4GvyhTK-74" value="eth3/57" style="edgeLabel;html=1;align=center;verticalAlign=middle;resizable=0;points=[];fontSize=7;" parent="DqQEm0YlbbgdJ4GvyhTK-67" vertex="1" connectable="0">
          <mxGeometry x="-0.8219" y="1" relative="1" as="geometry">
            <mxPoint as="offset" />
          </mxGeometry>
        </mxCell>
        <mxCell id="DqQEm0YlbbgdJ4GvyhTK-75" value="eth3/57" style="edgeLabel;html=1;align=center;verticalAlign=middle;resizable=0;points=[];fontSize=7;" parent="DqQEm0YlbbgdJ4GvyhTK-67" vertex="1" connectable="0">
          <mxGeometry x="0.7781" y="2" relative="1" as="geometry">
            <mxPoint as="offset" />
          </mxGeometry>
        </mxCell>
        <mxCell id="DqQEm0YlbbgdJ4GvyhTK-76" value="BE1" style="ellipse;whiteSpace=wrap;html=1;fontSize=8;rotation=-90;" parent="1" vertex="1">
          <mxGeometry x="182" y="564" width="50" height="14" as="geometry" />
        </mxCell>
        <mxCell id="DqQEm0YlbbgdJ4GvyhTK-80" value="BE1" style="ellipse;whiteSpace=wrap;html=1;fontSize=8;rotation=-90;" parent="1" vertex="1">
          <mxGeometry x="341" y="570" width="50" height="14" as="geometry" />
        </mxCell>
        <mxCell id="DqQEm0YlbbgdJ4GvyhTK-81" value="BE2" style="ellipse;whiteSpace=wrap;html=1;fontSize=8;" parent="1" vertex="1">
          <mxGeometry x="394" y="509" width="34" height="10" as="geometry" />
        </mxCell>
        <mxCell id="DqQEm0YlbbgdJ4GvyhTK-82" value="ethernet 2/45" style="edgeLabel;html=1;align=center;verticalAlign=middle;resizable=0;points=[];fontSize=7;" parent="1" vertex="1" connectable="0">
          <mxGeometry x="396.6159171597063" y="524.7350776627753" as="geometry" />
        </mxCell>
        <mxCell id="DqQEm0YlbbgdJ4GvyhTK-83" value="ethernet 3/45" style="edgeLabel;html=1;align=center;verticalAlign=middle;resizable=0;points=[];fontSize=7;" parent="1" vertex="1" connectable="0">
          <mxGeometry x="422.80861522988346" y="532.1913847701165" as="geometry" />
        </mxCell>
        <mxCell id="JL7E_l2-pFuVPhx2qgfc-1" value="BE2" style="ellipse;whiteSpace=wrap;html=1;fontSize=8;strokeColor=#6666FF;" parent="1" vertex="1">
          <mxGeometry x="138" y="212" width="40" height="8" as="geometry" />
        </mxCell>
        <mxCell id="JL7E_l2-pFuVPhx2qgfc-2" value="BE2" style="ellipse;whiteSpace=wrap;html=1;fontSize=8;strokeColor=#6666FF;" parent="1" vertex="1">
          <mxGeometry x="440" y="203" width="40" height="7" as="geometry" />
        </mxCell>
        <mxCell id="JL7E_l2-pFuVPhx2qgfc-3" value="ethernet 2/45" style="edgeLabel;html=1;align=center;verticalAlign=middle;resizable=0;points=[];fontSize=7;" parent="1" vertex="1" connectable="0">
          <mxGeometry x="127.88611612420254" y="201.4817661335601" as="geometry">
            <mxPoint x="7" y="-4" as="offset" />
          </mxGeometry>
        </mxCell>
        <mxCell id="JL7E_l2-pFuVPhx2qgfc-4" value="ethernet 3/45" style="edgeLabel;html=1;align=center;verticalAlign=middle;resizable=0;points=[];fontSize=7;" parent="1" vertex="1" connectable="0">
          <mxGeometry x="153.67766952966372" y="205.32233047033628" as="geometry" />
        </mxCell>
        <mxCell id="JL7E_l2-pFuVPhx2qgfc-5" value="ethernet 2/45" style="edgeLabel;html=1;align=center;verticalAlign=middle;resizable=0;points=[];fontSize=7;" parent="1" vertex="1" connectable="0">
          <mxGeometry x="459.99611612420256" y="190.00176613356007" as="geometry" />
        </mxCell>
        <mxCell id="JL7E_l2-pFuVPhx2qgfc-6" value="ethernet 3/45" style="edgeLabel;html=1;align=center;verticalAlign=middle;resizable=0;points=[];fontSize=7;" parent="1" vertex="1" connectable="0">
          <mxGeometry x="180.67766952966372" y="542.3223304703363" as="geometry">
            <mxPoint x="307" y="-342" as="offset" />
          </mxGeometry>
        </mxCell>
        <mxCell id="JL7E_l2-pFuVPhx2qgfc-42" value="" style="endArrow=classic;startArrow=classic;html=1;rounded=0;" parent="1" edge="1">
          <mxGeometry width="50" height="50" relative="1" as="geometry">
            <mxPoint x="165" y="133" as="sourcePoint" />
            <mxPoint x="412" y="133" as="targetPoint" />
          </mxGeometry>
        </mxCell>
        <mxCell id="JL7E_l2-pFuVPhx2qgfc-43" value="" style="endArrow=classic;startArrow=classic;html=1;rounded=0;" parent="1" edge="1">
          <mxGeometry width="50" height="50" relative="1" as="geometry">
            <mxPoint x="164" y="147" as="sourcePoint" />
            <mxPoint x="411" y="147" as="targetPoint" />
          </mxGeometry>
        </mxCell>
        <mxCell id="JL7E_l2-pFuVPhx2qgfc-44" value="" style="endArrow=classic;startArrow=classic;html=1;rounded=0;" parent="1" edge="1">
          <mxGeometry width="50" height="50" relative="1" as="geometry">
            <mxPoint x="165" y="161" as="sourcePoint" />
            <mxPoint x="412" y="161" as="targetPoint" />
          </mxGeometry>
        </mxCell>
        <mxCell id="JL7E_l2-pFuVPhx2qgfc-45" value="" style="endArrow=classic;startArrow=classic;html=1;rounded=0;" parent="1" edge="1">
          <mxGeometry width="50" height="50" relative="1" as="geometry">
            <mxPoint x="165" y="173" as="sourcePoint" />
            <mxPoint x="412" y="173" as="targetPoint" />
          </mxGeometry>
        </mxCell>
        <mxCell id="gUO-nnUhF8CoAVNUh9_9-1" value="" style="fontColor=#0066CC;verticalAlign=top;verticalLabelPosition=bottom;labelPosition=center;align=center;html=1;outlineConnect=0;fillColor=#CCCCCC;strokeColor=#6881B3;gradientColor=none;gradientDirection=north;strokeWidth=2;shape=mxgraph.networks.server;" parent="1" vertex="1">
          <mxGeometry x="554" y="415.5" width="41" height="29" as="geometry" />
        </mxCell>
        <mxCell id="gUO-nnUhF8CoAVNUh9_9-2" value="" style="fontColor=#0066CC;verticalAlign=top;verticalLabelPosition=bottom;labelPosition=center;align=center;html=1;outlineConnect=0;fillColor=#CCCCCC;strokeColor=#6881B3;gradientColor=none;gradientDirection=north;strokeWidth=2;shape=mxgraph.networks.server;" parent="1" vertex="1">
          <mxGeometry x="564" y="425.5" width="41" height="29" as="geometry" />
        </mxCell>
        <mxCell id="gUO-nnUhF8CoAVNUh9_9-3" value="&lt;a style=&quot;box-sizing: border-box; color: rgb(0, 105, 194); background-color: rgb(250, 250, 250); cursor: pointer; font-family: &amp;quot;Ericsson Hilda&amp;quot;, -apple-system, BlinkMacSystemFont, &amp;quot;Segoe UI&amp;quot;, Roboto, &amp;quot;Helvetica Neue&amp;quot;, Arial, sans-serif, &amp;quot;Apple Color Emoji&amp;quot;, &amp;quot;Segoe UI Emoji&amp;quot;, &amp;quot;Segoe UI Symbol&amp;quot;; font-size: 14px; text-align: right;&quot; class=&quot;ng-star-inserted&quot; href=&quot;https://hydra.gic.ericsson.se/ci/632656/data&quot;&gt;seroiadls00044&lt;/a&gt;,&amp;nbsp;&lt;a style=&quot;box-sizing: border-box; color: rgb(0, 105, 194); background-color: rgb(250, 250, 250); cursor: pointer; font-family: &amp;quot;Ericsson Hilda&amp;quot;, -apple-system, BlinkMacSystemFont, &amp;quot;Segoe UI&amp;quot;, Roboto, &amp;quot;Helvetica Neue&amp;quot;, Arial, sans-serif, &amp;quot;Apple Color Emoji&amp;quot;, &amp;quot;Segoe UI Emoji&amp;quot;, &amp;quot;Segoe UI Symbol&amp;quot;; font-size: 14px; text-align: right;&quot; class=&quot;ng-star-inserted&quot; href=&quot;https://hydra.gic.ericsson.se/ci/632656/data&quot;&gt;seroiadls00045&lt;/a&gt;" style="fontColor=#0066CC;verticalAlign=top;verticalLabelPosition=bottom;labelPosition=center;align=center;html=1;outlineConnect=0;fillColor=#CCCCCC;strokeColor=#6881B3;gradientColor=none;gradientDirection=north;strokeWidth=2;shape=mxgraph.networks.server;" parent="1" vertex="1">
          <mxGeometry x="570" y="415.5" width="10" height="14.5" as="geometry" />
        </mxCell>
        <mxCell id="gUO-nnUhF8CoAVNUh9_9-4" value="" style="endArrow=classic;startArrow=classic;html=1;rounded=0;entryX=0.62;entryY=0.97;entryDx=0;entryDy=0;entryPerimeter=0;exitX=0.751;exitY=0.314;exitDx=0;exitDy=0;exitPerimeter=0;" parent="1" source="gUO-nnUhF8CoAVNUh9_9-2" target="DqQEm0YlbbgdJ4GvyhTK-26" edge="1">
          <mxGeometry width="50" height="50" relative="1" as="geometry">
            <mxPoint x="640" y="419" as="sourcePoint" />
            <mxPoint x="887" y="419" as="targetPoint" />
          </mxGeometry>
        </mxCell>
        <mxCell id="gUO-nnUhF8CoAVNUh9_9-5" value="QFX_serointrt12302" style="rounded=1;whiteSpace=wrap;html=1;fontSize=8;" parent="1" vertex="1">
          <mxGeometry x="490" y="270" width="80" height="27" as="geometry" />
        </mxCell>
        <mxCell id="gUO-nnUhF8CoAVNUh9_9-6" value="SLX_serointrt00108&lt;br style=&quot;font-size: 8px;&quot;&gt;N99" style="rounded=1;whiteSpace=wrap;html=1;fontSize=8;" parent="1" vertex="1">
          <mxGeometry x="561.5" y="218" width="105" height="27" as="geometry" />
        </mxCell>
        <mxCell id="gUO-nnUhF8CoAVNUh9_9-7" value="QFX_serointrt00021&lt;br style=&quot;font-size: 8px;&quot;&gt;N99" style="rounded=1;whiteSpace=wrap;html=1;fontSize=8;" parent="1" vertex="1">
          <mxGeometry x="620" y="138.5" width="105" height="27" as="geometry" />
        </mxCell>
        <mxCell id="gUO-nnUhF8CoAVNUh9_9-8" value="" style="endArrow=classic;startArrow=classic;html=1;rounded=0;exitX=0.751;exitY=0.314;exitDx=0;exitDy=0;exitPerimeter=0;entryX=0;entryY=0.75;entryDx=0;entryDy=0;" parent="1" target="gUO-nnUhF8CoAVNUh9_9-5" edge="1">
          <mxGeometry width="50" height="50" relative="1" as="geometry">
            <mxPoint x="349.88" y="333" as="sourcePoint" />
            <mxPoint x="434.88" y="288" as="targetPoint" />
          </mxGeometry>
        </mxCell>
        <mxCell id="gUO-nnUhF8CoAVNUh9_9-9" value="Eth0/31,32" style="edgeLabel;html=1;align=center;verticalAlign=middle;resizable=0;points=[];" parent="gUO-nnUhF8CoAVNUh9_9-8" vertex="1" connectable="0">
          <mxGeometry x="-0.7359" relative="1" as="geometry">
            <mxPoint as="offset" />
          </mxGeometry>
        </mxCell>
        <mxCell id="gUO-nnUhF8CoAVNUh9_9-10" value="49,53" style="edgeLabel;html=1;align=center;verticalAlign=middle;resizable=0;points=[];" parent="gUO-nnUhF8CoAVNUh9_9-8" vertex="1" connectable="0">
          <mxGeometry x="0.5941" y="1" relative="1" as="geometry">
            <mxPoint as="offset" />
          </mxGeometry>
        </mxCell>
        <mxCell id="gUO-nnUhF8CoAVNUh9_9-11" value="" style="endArrow=classic;startArrow=classic;html=1;rounded=0;exitX=0;exitY=0.5;exitDx=0;exitDy=0;" parent="1" source="gUO-nnUhF8CoAVNUh9_9-18" edge="1">
          <mxGeometry width="50" height="50" relative="1" as="geometry">
            <mxPoint x="650" y="280" as="sourcePoint" />
            <mxPoint x="570" y="280" as="targetPoint" />
          </mxGeometry>
        </mxCell>
        <mxCell id="gUO-nnUhF8CoAVNUh9_9-19" value="24" style="edgeLabel;html=1;align=center;verticalAlign=middle;resizable=0;points=[];" parent="gUO-nnUhF8CoAVNUh9_9-11" vertex="1" connectable="0">
          <mxGeometry x="0.6588" y="-1" relative="1" as="geometry">
            <mxPoint as="offset" />
          </mxGeometry>
        </mxCell>
        <mxCell id="gUO-nnUhF8CoAVNUh9_9-20" value="35" style="edgeLabel;html=1;align=center;verticalAlign=middle;resizable=0;points=[];" parent="gUO-nnUhF8CoAVNUh9_9-11" vertex="1" connectable="0">
          <mxGeometry x="-0.5855" y="-1" relative="1" as="geometry">
            <mxPoint as="offset" />
          </mxGeometry>
        </mxCell>
        <mxCell id="gUO-nnUhF8CoAVNUh9_9-12" value="" style="endArrow=classic;startArrow=classic;html=1;rounded=0;" parent="1" edge="1">
          <mxGeometry width="50" height="50" relative="1" as="geometry">
            <mxPoint x="510" y="270" as="sourcePoint" />
            <mxPoint x="560" y="230" as="targetPoint" />
          </mxGeometry>
        </mxCell>
        <mxCell id="gUO-nnUhF8CoAVNUh9_9-13" value="47" style="edgeLabel;html=1;align=center;verticalAlign=middle;resizable=0;points=[];" parent="gUO-nnUhF8CoAVNUh9_9-12" vertex="1" connectable="0">
          <mxGeometry x="-0.442" y="-1" relative="1" as="geometry">
            <mxPoint as="offset" />
          </mxGeometry>
        </mxCell>
        <mxCell id="gUO-nnUhF8CoAVNUh9_9-14" value="1" style="edgeLabel;html=1;align=center;verticalAlign=middle;resizable=0;points=[];" parent="gUO-nnUhF8CoAVNUh9_9-12" vertex="1" connectable="0">
          <mxGeometry x="0.4654" relative="1" as="geometry">
            <mxPoint as="offset" />
          </mxGeometry>
        </mxCell>
        <mxCell id="gUO-nnUhF8CoAVNUh9_9-15" value="" style="endArrow=classic;startArrow=classic;html=1;rounded=0;exitX=0.325;exitY=-0.096;exitDx=0;exitDy=0;exitPerimeter=0;entryX=0.25;entryY=1;entryDx=0;entryDy=0;" parent="1" source="gUO-nnUhF8CoAVNUh9_9-6" target="gUO-nnUhF8CoAVNUh9_9-7" edge="1">
          <mxGeometry width="50" height="50" relative="1" as="geometry">
            <mxPoint x="600" y="210" as="sourcePoint" />
            <mxPoint x="650" y="160" as="targetPoint" />
          </mxGeometry>
        </mxCell>
        <mxCell id="gUO-nnUhF8CoAVNUh9_9-16" value="2" style="edgeLabel;html=1;align=center;verticalAlign=middle;resizable=0;points=[];" parent="gUO-nnUhF8CoAVNUh9_9-15" vertex="1" connectable="0">
          <mxGeometry x="-0.442" y="-1" relative="1" as="geometry">
            <mxPoint as="offset" />
          </mxGeometry>
        </mxCell>
        <mxCell id="gUO-nnUhF8CoAVNUh9_9-17" value="47" style="edgeLabel;html=1;align=center;verticalAlign=middle;resizable=0;points=[];" parent="gUO-nnUhF8CoAVNUh9_9-15" vertex="1" connectable="0">
          <mxGeometry x="0.4654" relative="1" as="geometry">
            <mxPoint as="offset" />
          </mxGeometry>
        </mxCell>
        <mxCell id="gUO-nnUhF8CoAVNUh9_9-18" value="ASR_serointrt12201-02-cluster" style="rounded=1;whiteSpace=wrap;html=1;fontSize=8;" parent="1" vertex="1">
          <mxGeometry x="660" y="270" width="90" height="30" as="geometry" />
        </mxCell>
        <mxCell id="gUO-nnUhF8CoAVNUh9_9-21" value="&lt;a href=&quot;https://hydra.gic.ericsson.se/ci/632656/data&quot; class=&quot;ng-star-inserted&quot; style=&quot;box-sizing: border-box; color: rgb(0, 105, 194); background-color: rgb(250, 250, 250); cursor: pointer; font-family: &amp;quot;Ericsson Hilda&amp;quot;, -apple-system, BlinkMacSystemFont, &amp;quot;Segoe UI&amp;quot;, Roboto, &amp;quot;Helvetica Neue&amp;quot;, Arial, sans-serif, &amp;quot;Apple Color Emoji&amp;quot;, &amp;quot;Segoe UI Emoji&amp;quot;, &amp;quot;Segoe UI Symbol&amp;quot;; font-size: 14px; text-align: right;&quot;&gt;seroiadls&lt;/a&gt;" style="fontColor=#0066CC;verticalAlign=top;verticalLabelPosition=bottom;labelPosition=center;align=center;html=1;outlineConnect=0;fillColor=#CCCCCC;strokeColor=#6881B3;gradientColor=none;gradientDirection=north;strokeWidth=2;shape=mxgraph.networks.server;" parent="1" vertex="1">
          <mxGeometry x="709" y="161" width="41" height="29" as="geometry" />
        </mxCell>
        <mxCell id="gUO-nnUhF8CoAVNUh9_9-22" value="&lt;a style=&quot;box-sizing: border-box; color: rgb(0, 105, 194); background-color: rgb(250, 250, 250); cursor: pointer; font-family: &amp;quot;Ericsson Hilda&amp;quot;, -apple-system, BlinkMacSystemFont, &amp;quot;Segoe UI&amp;quot;, Roboto, &amp;quot;Helvetica Neue&amp;quot;, Arial, sans-serif, &amp;quot;Apple Color Emoji&amp;quot;, &amp;quot;Segoe UI Emoji&amp;quot;, &amp;quot;Segoe UI Symbol&amp;quot;; font-size: 14px; text-align: right;&quot; class=&quot;ng-star-inserted&quot; href=&quot;https://hydra.gic.ericsson.se/ci/632656/data&quot;&gt;seroiadls&lt;/a&gt;" style="fontColor=#0066CC;verticalAlign=top;verticalLabelPosition=bottom;labelPosition=center;align=center;html=1;outlineConnect=0;fillColor=#CCCCCC;strokeColor=#6881B3;gradientColor=none;gradientDirection=north;strokeWidth=2;shape=mxgraph.networks.server;" parent="1" vertex="1">
          <mxGeometry x="660" y="201.48" width="41" height="29" as="geometry" />
        </mxCell>
        <mxCell id="gUO-nnUhF8CoAVNUh9_9-23" value="&lt;a style=&quot;box-sizing: border-box; color: rgb(0, 105, 194); background-color: rgb(250, 250, 250); cursor: pointer; font-family: &amp;quot;Ericsson Hilda&amp;quot;, -apple-system, BlinkMacSystemFont, &amp;quot;Segoe UI&amp;quot;, Roboto, &amp;quot;Helvetica Neue&amp;quot;, Arial, sans-serif, &amp;quot;Apple Color Emoji&amp;quot;, &amp;quot;Segoe UI Emoji&amp;quot;, &amp;quot;Segoe UI Symbol&amp;quot;; font-size: 14px; text-align: right;&quot; class=&quot;ng-star-inserted&quot; href=&quot;https://hydra.gic.ericsson.se/ci/632656/data&quot;&gt;seroiadls&lt;/a&gt;" style="fontColor=#0066CC;verticalAlign=top;verticalLabelPosition=bottom;labelPosition=center;align=center;html=1;outlineConnect=0;fillColor=#CCCCCC;strokeColor=#6881B3;gradientColor=none;gradientDirection=north;strokeWidth=2;shape=mxgraph.networks.server;" parent="1" vertex="1">
          <mxGeometry x="553" y="291" width="13" height="12" as="geometry" />
        </mxCell>
        <mxCell id="fDHc7nuSERFL8diUOKGe-1" value="Ve 805" style="text;html=1;strokeColor=none;fillColor=none;align=center;verticalAlign=middle;whiteSpace=wrap;rounded=0;" parent="1" vertex="1">
          <mxGeometry x="186" y="294" width="40" height="18.5" as="geometry" />
        </mxCell>
        <mxCell id="fDHc7nuSERFL8diUOKGe-4" value="Ve 806" style="text;html=1;strokeColor=none;fillColor=none;align=center;verticalAlign=middle;whiteSpace=wrap;rounded=0;" parent="1" vertex="1">
          <mxGeometry x="355" y="297" width="40" height="18.5" as="geometry" />
        </mxCell>
        <mxCell id="fDHc7nuSERFL8diUOKGe-5" value="BE2.805" style="text;html=1;strokeColor=none;fillColor=none;align=center;verticalAlign=middle;whiteSpace=wrap;rounded=0;" parent="1" vertex="1">
          <mxGeometry x="146.68" y="221.25" width="40" height="18.5" as="geometry" />
        </mxCell>
        <mxCell id="fDHc7nuSERFL8diUOKGe-6" value="BE2.806" style="text;html=1;strokeColor=none;fillColor=none;align=center;verticalAlign=middle;whiteSpace=wrap;rounded=0;" parent="1" vertex="1">
          <mxGeometry x="432" y="210.26" width="40" height="18.5" as="geometry" />
        </mxCell>
      </root>
    </mxGraphModel>
  </diagram>
</mxfile>
